<svg width="500" height="500" viewBox="0 0 500 500" fill="none" xmlns="http://www.w3.org/2000/svg">
<path d="M250 0C112.153 0 0 112.153 0 250C0 387.847 112.153 500 250 500C387.847 500 500 387.847 500 250C500 112.153 387.847 0 250 0ZM250 21.566C353.568 21.566 441.25 90.8564 469.146 185.519L447.952 189.212C441.632 169.849 426.82 152.451 404.437 140.163C358.451 114.915 312.319 128.517 289.191 170.635C265.619 213.571 279.344 258.978 325.331 284.226C328.858 286.161 332.385 287.847 335.892 289.346C319.249 283.378 300.083 285.799 280.648 296.111C255.596 309.402 242.718 329.624 244.932 349.938L239.253 313.095L216.86 316.549L277.875 258.099L258.027 246.07L154.427 346.69L152.441 345.49L189.739 204.686L164.729 189.522L56.7542 287.495L54.5718 286.171L96.235 148.014L75.7861 135.623L27.4824 301.748C23.6243 285.126 21.5763 267.811 21.5763 250.031C21.566 124.048 124.048 21.566 250 21.566ZM373.48 224.059L429.748 214.17C429.913 223.531 427.338 233.502 421.866 243.484C403.548 276.851 370.335 281.392 336.957 263.074C303.589 244.756 289.595 214.284 307.913 180.916C325.683 148.562 359.454 143.008 392.822 161.326C408.078 169.704 418.98 180.72 424.938 193.525L369.808 203.248L373.48 224.059ZM357.313 426.779C335.157 438.529 316.436 436.895 300.538 419.311L282.22 434.806C304.706 458.875 332.251 464.243 367.325 445.645C369.084 444.715 370.759 443.753 372.404 442.78C340.877 462.867 304.127 475.424 264.688 477.938L245.521 353.589C246.359 357.83 247.859 362.05 250.062 366.208C262.029 388.767 284.237 396.959 313.664 385.561L343.701 373.831C359.34 367.646 373.014 370.635 380.192 384.175C387.805 398.531 380.089 414.708 357.323 426.779H357.313ZM27.4928 301.769L54.0753 317.873L160.002 221.918L162.185 223.242L126.138 361.543L152.938 377.782L216.798 316.601L241.715 478.238C137.236 474.493 50.4137 400.248 27.5031 301.748L27.4928 301.769ZM383.068 435.55C406.03 417.677 412.402 394.901 400.89 373.19C387.95 348.779 364.191 341.146 335.374 352.224L306.154 363.519C289.181 370.159 277.172 367.325 270.542 354.82C263.146 340.867 270.159 325.859 290.67 314.977C309.743 304.861 327.555 307.24 341.601 321.338L359.495 305.544C353.527 298.935 346.825 294.063 339.595 290.846C380.554 306.485 419.446 292.253 440.577 253.765C448.397 239.522 452.089 224.597 451.707 210.354L474.214 206.361C476.955 220.49 478.413 235.085 478.413 250.01C478.413 326.355 440.763 394.063 383.058 435.561L383.068 435.55Z" fill="#03143B"/>
</svg>
